<?xml version="1.0" encoding="utf-8" standalone="no"?>
<!DOCTYPE svg PUBLIC "-//W3C//DTD SVG 1.1//EN"
  "http://www.w3.org/Graphics/SVG/1.1/DTD/svg11.dtd">
<!-- Created with matplotlib (https://matplotlib.org/) -->
<svg height="288pt" version="1.1" viewBox="0 0 1080 288" width="1080pt" xmlns="http://www.w3.org/2000/svg" xmlns:xlink="http://www.w3.org/1999/xlink">
 <defs>
  <style type="text/css">
*{stroke-linecap:butt;stroke-linejoin:round;}
  </style>
 </defs>
 <g id="figure_1">
  <g id="patch_1">
   <path d="M 0 288 
L 1080 288 
L 1080 0 
L 0 0 
z
" style="fill:#ffffff;"/>
  </g>
  <g id="axes_1">
   <g id="patch_2">
    <path d="M 31.39 259.4 
L 1067.04 259.4 
L 1067.04 15.661335 
L 31.39 15.661335 
z
" style="fill:#eaeaf2;"/>
   </g>
   <g id="matplotlib.axis_1">
    <g id="xtick_1">
     <g id="text_1">
      <!-- bmi -->
      <defs>
       <path d="M 14.703125 0 
L 6.546875 0 
L 6.546875 71.578125 
L 15.328125 71.578125 
L 15.328125 46.046875 
Q 20.90625 53.03125 29.546875 53.03125 
Q 34.328125 53.03125 38.59375 51.09375 
Q 42.875 49.171875 45.625 45.671875 
Q 48.390625 42.1875 49.953125 37.25 
Q 51.515625 32.328125 51.515625 26.703125 
Q 51.515625 13.375 44.921875 6.09375 
Q 38.328125 -1.171875 29.109375 -1.171875 
Q 19.921875 -1.171875 14.703125 6.5 
z
M 14.59375 26.3125 
Q 14.59375 17 17.140625 12.84375 
Q 21.296875 6.0625 28.375 6.0625 
Q 34.125 6.0625 38.328125 11.0625 
Q 42.53125 16.0625 42.53125 25.984375 
Q 42.53125 36.140625 38.5 40.96875 
Q 34.46875 45.796875 28.765625 45.796875 
Q 23 45.796875 18.796875 40.796875 
Q 14.59375 35.796875 14.59375 26.3125 
z
" id="ArialMT-98"/>
       <path d="M 6.59375 0 
L 6.59375 51.859375 
L 14.453125 51.859375 
L 14.453125 44.578125 
Q 16.890625 48.390625 20.9375 50.703125 
Q 25 53.03125 30.171875 53.03125 
Q 35.9375 53.03125 39.625 50.640625 
Q 43.3125 48.25 44.828125 43.953125 
Q 50.984375 53.03125 60.84375 53.03125 
Q 68.5625 53.03125 72.703125 48.75 
Q 76.859375 44.484375 76.859375 35.59375 
L 76.859375 0 
L 68.109375 0 
L 68.109375 32.671875 
Q 68.109375 37.9375 67.25 40.25 
Q 66.40625 42.578125 64.15625 43.984375 
Q 61.921875 45.40625 58.890625 45.40625 
Q 53.421875 45.40625 49.796875 41.765625 
Q 46.1875 38.140625 46.1875 30.125 
L 46.1875 0 
L 37.40625 0 
L 37.40625 33.6875 
Q 37.40625 39.546875 35.25 42.46875 
Q 33.109375 45.40625 28.21875 45.40625 
Q 24.515625 45.40625 21.359375 43.453125 
Q 18.21875 41.5 16.796875 37.734375 
Q 15.375 33.984375 15.375 26.90625 
L 15.375 0 
z
" id="ArialMT-109"/>
       <path d="M 6.640625 61.46875 
L 6.640625 71.578125 
L 15.4375 71.578125 
L 15.4375 61.46875 
z
M 6.640625 0 
L 6.640625 51.859375 
L 15.4375 51.859375 
L 15.4375 0 
z
" id="ArialMT-105"/>
      </defs>
      <g style="fill:#262626;" transform="translate(282.24625 273.557813)scale(0.1 -0.1)">
       <use xlink:href="#ArialMT-98"/>
       <use x="55.615234" xlink:href="#ArialMT-109"/>
       <use x="138.916016" xlink:href="#ArialMT-105"/>
      </g>
     </g>
    </g>
    <g id="xtick_2">
     <g id="text_2">
      <!-- charges -->
      <defs>
       <path d="M 40.4375 19 
L 49.078125 17.875 
Q 47.65625 8.9375 41.8125 3.875 
Q 35.984375 -1.171875 27.484375 -1.171875 
Q 16.84375 -1.171875 10.375 5.78125 
Q 3.90625 12.75 3.90625 25.734375 
Q 3.90625 34.125 6.6875 40.421875 
Q 9.46875 46.734375 15.15625 49.875 
Q 20.84375 53.03125 27.546875 53.03125 
Q 35.984375 53.03125 41.359375 48.75 
Q 46.734375 44.484375 48.25 36.625 
L 39.703125 35.296875 
Q 38.484375 40.53125 35.375 43.15625 
Q 32.28125 45.796875 27.875 45.796875 
Q 21.234375 45.796875 17.078125 41.03125 
Q 12.9375 36.28125 12.9375 25.984375 
Q 12.9375 15.53125 16.9375 10.796875 
Q 20.953125 6.0625 27.390625 6.0625 
Q 32.5625 6.0625 36.03125 9.234375 
Q 39.5 12.40625 40.4375 19 
z
" id="ArialMT-99"/>
       <path d="M 6.59375 0 
L 6.59375 71.578125 
L 15.375 71.578125 
L 15.375 45.90625 
Q 21.53125 53.03125 30.90625 53.03125 
Q 36.671875 53.03125 40.921875 50.75 
Q 45.171875 48.484375 47 44.484375 
Q 48.828125 40.484375 48.828125 32.859375 
L 48.828125 0 
L 40.046875 0 
L 40.046875 32.859375 
Q 40.046875 39.453125 37.1875 42.453125 
Q 34.328125 45.453125 29.109375 45.453125 
Q 25.203125 45.453125 21.75 43.421875 
Q 18.3125 41.40625 16.84375 37.9375 
Q 15.375 34.46875 15.375 28.375 
L 15.375 0 
z
" id="ArialMT-104"/>
       <path d="M 40.4375 6.390625 
Q 35.546875 2.25 31.03125 0.53125 
Q 26.515625 -1.171875 21.34375 -1.171875 
Q 12.796875 -1.171875 8.203125 3 
Q 3.609375 7.171875 3.609375 13.671875 
Q 3.609375 17.484375 5.34375 20.625 
Q 7.078125 23.78125 9.890625 25.6875 
Q 12.703125 27.59375 16.21875 28.5625 
Q 18.796875 29.25 24.03125 29.890625 
Q 34.671875 31.15625 39.703125 32.90625 
Q 39.75 34.71875 39.75 35.203125 
Q 39.75 40.578125 37.25 42.78125 
Q 33.890625 45.75 27.25 45.75 
Q 21.046875 45.75 18.09375 43.578125 
Q 15.140625 41.40625 13.71875 35.890625 
L 5.125 37.0625 
Q 6.296875 42.578125 8.984375 45.96875 
Q 11.671875 49.359375 16.75 51.1875 
Q 21.828125 53.03125 28.515625 53.03125 
Q 35.15625 53.03125 39.296875 51.46875 
Q 43.453125 49.90625 45.40625 47.53125 
Q 47.359375 45.171875 48.140625 41.546875 
Q 48.578125 39.3125 48.578125 33.453125 
L 48.578125 21.734375 
Q 48.578125 9.46875 49.140625 6.21875 
Q 49.703125 2.984375 51.375 0 
L 42.1875 0 
Q 40.828125 2.734375 40.4375 6.390625 
z
M 39.703125 26.03125 
Q 34.90625 24.078125 25.34375 22.703125 
Q 19.921875 21.921875 17.671875 20.9375 
Q 15.4375 19.96875 14.203125 18.09375 
Q 12.984375 16.21875 12.984375 13.921875 
Q 12.984375 10.40625 15.640625 8.0625 
Q 18.3125 5.71875 23.4375 5.71875 
Q 28.515625 5.71875 32.46875 7.9375 
Q 36.421875 10.15625 38.28125 14.015625 
Q 39.703125 17 39.703125 22.796875 
z
" id="ArialMT-97"/>
       <path d="M 6.5 0 
L 6.5 51.859375 
L 14.40625 51.859375 
L 14.40625 44 
Q 17.4375 49.515625 20 51.265625 
Q 22.5625 53.03125 25.640625 53.03125 
Q 30.078125 53.03125 34.671875 50.203125 
L 31.640625 42.046875 
Q 28.421875 43.953125 25.203125 43.953125 
Q 22.3125 43.953125 20.015625 42.21875 
Q 17.71875 40.484375 16.75 37.40625 
Q 15.28125 32.71875 15.28125 27.15625 
L 15.28125 0 
z
" id="ArialMT-114"/>
       <path d="M 4.984375 -4.296875 
L 13.53125 -5.5625 
Q 14.0625 -9.515625 16.5 -11.328125 
Q 19.78125 -13.765625 25.4375 -13.765625 
Q 31.546875 -13.765625 34.859375 -11.328125 
Q 38.1875 -8.890625 39.359375 -4.5 
Q 40.046875 -1.8125 39.984375 6.78125 
Q 34.234375 0 25.640625 0 
Q 14.9375 0 9.078125 7.71875 
Q 3.21875 15.4375 3.21875 26.21875 
Q 3.21875 33.640625 5.90625 39.90625 
Q 8.59375 46.1875 13.6875 49.609375 
Q 18.796875 53.03125 25.6875 53.03125 
Q 34.859375 53.03125 40.828125 45.609375 
L 40.828125 51.859375 
L 48.921875 51.859375 
L 48.921875 7.03125 
Q 48.921875 -5.078125 46.453125 -10.125 
Q 44 -15.1875 38.640625 -18.109375 
Q 33.296875 -21.046875 25.484375 -21.046875 
Q 16.21875 -21.046875 10.5 -16.875 
Q 4.78125 -12.703125 4.984375 -4.296875 
z
M 12.25 26.859375 
Q 12.25 16.65625 16.296875 11.96875 
Q 20.359375 7.28125 26.46875 7.28125 
Q 32.515625 7.28125 36.609375 11.9375 
Q 40.71875 16.609375 40.71875 26.5625 
Q 40.71875 36.078125 36.5 40.90625 
Q 32.28125 45.75 26.3125 45.75 
Q 20.453125 45.75 16.34375 40.984375 
Q 12.25 36.234375 12.25 26.859375 
z
" id="ArialMT-103"/>
       <path d="M 42.09375 16.703125 
L 51.171875 15.578125 
Q 49.03125 7.625 43.21875 3.21875 
Q 37.40625 -1.171875 28.375 -1.171875 
Q 17 -1.171875 10.328125 5.828125 
Q 3.65625 12.84375 3.65625 25.484375 
Q 3.65625 38.578125 10.390625 45.796875 
Q 17.140625 53.03125 27.875 53.03125 
Q 38.28125 53.03125 44.875 45.953125 
Q 51.46875 38.875 51.46875 26.03125 
Q 51.46875 25.25 51.421875 23.6875 
L 12.75 23.6875 
Q 13.234375 15.140625 17.578125 10.59375 
Q 21.921875 6.0625 28.421875 6.0625 
Q 33.25 6.0625 36.671875 8.59375 
Q 40.09375 11.140625 42.09375 16.703125 
z
M 13.234375 30.90625 
L 42.1875 30.90625 
Q 41.609375 37.453125 38.875 40.71875 
Q 34.671875 45.796875 27.984375 45.796875 
Q 21.921875 45.796875 17.796875 41.75 
Q 13.671875 37.703125 13.234375 30.90625 
z
" id="ArialMT-101"/>
       <path d="M 3.078125 15.484375 
L 11.765625 16.84375 
Q 12.5 11.625 15.84375 8.84375 
Q 19.1875 6.0625 25.203125 6.0625 
Q 31.25 6.0625 34.171875 8.515625 
Q 37.109375 10.984375 37.109375 14.3125 
Q 37.109375 17.28125 34.515625 19 
Q 32.71875 20.171875 25.53125 21.96875 
Q 15.875 24.421875 12.140625 26.203125 
Q 8.40625 27.984375 6.46875 31.125 
Q 4.546875 34.28125 4.546875 38.09375 
Q 4.546875 41.546875 6.125 44.5 
Q 7.71875 47.46875 10.453125 49.421875 
Q 12.5 50.921875 16.03125 51.96875 
Q 19.578125 53.03125 23.640625 53.03125 
Q 29.734375 53.03125 34.34375 51.265625 
Q 38.96875 49.515625 41.15625 46.5 
Q 43.359375 43.5 44.1875 38.484375 
L 35.59375 37.3125 
Q 35.015625 41.3125 32.203125 43.546875 
Q 29.390625 45.796875 24.265625 45.796875 
Q 18.21875 45.796875 15.625 43.796875 
Q 13.03125 41.796875 13.03125 39.109375 
Q 13.03125 37.40625 14.109375 36.03125 
Q 15.1875 34.625 17.484375 33.6875 
Q 18.796875 33.203125 25.25 31.453125 
Q 34.578125 28.953125 38.25 27.359375 
Q 41.9375 25.78125 44.03125 22.75 
Q 46.140625 19.734375 46.140625 15.234375 
Q 46.140625 10.84375 43.578125 6.953125 
Q 41.015625 3.078125 36.171875 0.953125 
Q 31.34375 -1.171875 25.25 -1.171875 
Q 15.140625 -1.171875 9.84375 3.03125 
Q 4.546875 7.234375 3.078125 15.484375 
z
" id="ArialMT-115"/>
      </defs>
      <g style="fill:#262626;" transform="translate(790.340781 273.557813)scale(0.1 -0.1)">
       <use xlink:href="#ArialMT-99"/>
       <use x="50" xlink:href="#ArialMT-104"/>
       <use x="105.615234" xlink:href="#ArialMT-97"/>
       <use x="161.230469" xlink:href="#ArialMT-114"/>
       <use x="194.53125" xlink:href="#ArialMT-103"/>
       <use x="250.146484" xlink:href="#ArialMT-101"/>
       <use x="305.761719" xlink:href="#ArialMT-115"/>
      </g>
     </g>
    </g>
   </g>
   <g id="matplotlib.axis_2">
    <g id="ytick_1">
     <g id="line2d_1">
      <path clip-path="url(#pae73ee2db3)" d="M 31.39 251.703441 
L 1067.04 251.703441 
" style="fill:none;stroke:#ffffff;stroke-linecap:round;"/>
     </g>
     <g id="text_3">
      <!-- −3 -->
      <defs>
       <path d="M 52.828125 31.203125 
L 5.5625 31.203125 
L 5.5625 39.40625 
L 52.828125 39.40625 
z
" id="ArialMT-8722"/>
       <path d="M 4.203125 18.890625 
L 12.984375 20.0625 
Q 14.5 12.59375 18.140625 9.296875 
Q 21.78125 6 27 6 
Q 33.203125 6 37.46875 10.296875 
Q 41.75 14.59375 41.75 20.953125 
Q 41.75 27 37.796875 30.921875 
Q 33.84375 34.859375 27.734375 34.859375 
Q 25.25 34.859375 21.53125 33.890625 
L 22.515625 41.609375 
Q 23.390625 41.5 23.921875 41.5 
Q 29.546875 41.5 34.03125 44.421875 
Q 38.53125 47.359375 38.53125 53.46875 
Q 38.53125 58.296875 35.25 61.46875 
Q 31.984375 64.65625 26.8125 64.65625 
Q 21.6875 64.65625 18.265625 61.421875 
Q 14.84375 58.203125 13.875 51.765625 
L 5.078125 53.328125 
Q 6.6875 62.15625 12.390625 67.015625 
Q 18.109375 71.875 26.609375 71.875 
Q 32.46875 71.875 37.390625 69.359375 
Q 42.328125 66.84375 44.9375 62.5 
Q 47.5625 58.15625 47.5625 53.265625 
Q 47.5625 48.640625 45.0625 44.828125 
Q 42.578125 41.015625 37.703125 38.765625 
Q 44.046875 37.3125 47.5625 32.6875 
Q 51.078125 28.078125 51.078125 21.140625 
Q 51.078125 11.765625 44.234375 5.25 
Q 37.40625 -1.265625 26.953125 -1.265625 
Q 17.53125 -1.265625 11.296875 4.34375 
Q 5.078125 9.96875 4.203125 18.890625 
z
" id="ArialMT-51"/>
      </defs>
      <g style="fill:#262626;" transform="translate(12.988438 255.282348)scale(0.1 -0.1)">
       <use xlink:href="#ArialMT-8722"/>
       <use x="58.398438" xlink:href="#ArialMT-51"/>
      </g>
     </g>
    </g>
    <g id="ytick_2">
     <g id="line2d_2">
      <path clip-path="url(#pae73ee2db3)" d="M 31.39 222.273655 
L 1067.04 222.273655 
" style="fill:none;stroke:#ffffff;stroke-linecap:round;"/>
     </g>
     <g id="text_4">
      <!-- −2 -->
      <defs>
       <path d="M 50.34375 8.453125 
L 50.34375 0 
L 3.03125 0 
Q 2.9375 3.171875 4.046875 6.109375 
Q 5.859375 10.9375 9.828125 15.625 
Q 13.8125 20.3125 21.34375 26.46875 
Q 33.015625 36.03125 37.109375 41.625 
Q 41.21875 47.21875 41.21875 52.203125 
Q 41.21875 57.421875 37.46875 61 
Q 33.734375 64.59375 27.734375 64.59375 
Q 21.390625 64.59375 17.578125 60.78125 
Q 13.765625 56.984375 13.71875 50.25 
L 4.6875 51.171875 
Q 5.609375 61.28125 11.65625 66.578125 
Q 17.71875 71.875 27.9375 71.875 
Q 38.234375 71.875 44.234375 66.15625 
Q 50.25 60.453125 50.25 52 
Q 50.25 47.703125 48.484375 43.546875 
Q 46.734375 39.40625 42.65625 34.8125 
Q 38.578125 30.21875 29.109375 22.21875 
Q 21.1875 15.578125 18.9375 13.203125 
Q 16.703125 10.84375 15.234375 8.453125 
z
" id="ArialMT-50"/>
      </defs>
      <g style="fill:#262626;" transform="translate(12.988438 225.852561)scale(0.1 -0.1)">
       <use xlink:href="#ArialMT-8722"/>
       <use x="58.398438" xlink:href="#ArialMT-50"/>
      </g>
     </g>
    </g>
    <g id="ytick_3">
     <g id="line2d_3">
      <path clip-path="url(#pae73ee2db3)" d="M 31.39 192.843868 
L 1067.04 192.843868 
" style="fill:none;stroke:#ffffff;stroke-linecap:round;"/>
     </g>
     <g id="text_5">
      <!-- −1 -->
      <defs>
       <path d="M 37.25 0 
L 28.46875 0 
L 28.46875 56 
Q 25.296875 52.984375 20.140625 49.953125 
Q 14.984375 46.921875 10.890625 45.40625 
L 10.890625 53.90625 
Q 18.265625 57.375 23.78125 62.296875 
Q 29.296875 67.234375 31.59375 71.875 
L 37.25 71.875 
z
" id="ArialMT-49"/>
      </defs>
      <g style="fill:#262626;" transform="translate(12.988438 196.422775)scale(0.1 -0.1)">
       <use xlink:href="#ArialMT-8722"/>
       <use x="58.398438" xlink:href="#ArialMT-49"/>
      </g>
     </g>
    </g>
    <g id="ytick_4">
     <g id="line2d_4">
      <path clip-path="url(#pae73ee2db3)" d="M 31.39 163.414082 
L 1067.04 163.414082 
" style="fill:none;stroke:#ffffff;stroke-linecap:round;"/>
     </g>
     <g id="text_6">
      <!-- 0 -->
      <defs>
       <path d="M 4.15625 35.296875 
Q 4.15625 48 6.765625 55.734375 
Q 9.375 63.484375 14.515625 67.671875 
Q 19.671875 71.875 27.484375 71.875 
Q 33.25 71.875 37.59375 69.546875 
Q 41.9375 67.234375 44.765625 62.859375 
Q 47.609375 58.5 49.21875 52.21875 
Q 50.828125 45.953125 50.828125 35.296875 
Q 50.828125 22.703125 48.234375 14.96875 
Q 45.65625 7.234375 40.5 3 
Q 35.359375 -1.21875 27.484375 -1.21875 
Q 17.140625 -1.21875 11.234375 6.203125 
Q 4.15625 15.140625 4.15625 35.296875 
z
M 13.1875 35.296875 
Q 13.1875 17.671875 17.3125 11.828125 
Q 21.4375 6 27.484375 6 
Q 33.546875 6 37.671875 11.859375 
Q 41.796875 17.71875 41.796875 35.296875 
Q 41.796875 52.984375 37.671875 58.78125 
Q 33.546875 64.59375 27.390625 64.59375 
Q 21.34375 64.59375 17.71875 59.46875 
Q 13.1875 52.9375 13.1875 35.296875 
z
" id="ArialMT-48"/>
      </defs>
      <g style="fill:#262626;" transform="translate(18.829063 166.992988)scale(0.1 -0.1)">
       <use xlink:href="#ArialMT-48"/>
      </g>
     </g>
    </g>
    <g id="ytick_5">
     <g id="line2d_5">
      <path clip-path="url(#pae73ee2db3)" d="M 31.39 133.984296 
L 1067.04 133.984296 
" style="fill:none;stroke:#ffffff;stroke-linecap:round;"/>
     </g>
     <g id="text_7">
      <!-- 1 -->
      <g style="fill:#262626;" transform="translate(18.829063 137.563202)scale(0.1 -0.1)">
       <use xlink:href="#ArialMT-49"/>
      </g>
     </g>
    </g>
    <g id="ytick_6">
     <g id="line2d_6">
      <path clip-path="url(#pae73ee2db3)" d="M 31.39 104.554509 
L 1067.04 104.554509 
" style="fill:none;stroke:#ffffff;stroke-linecap:round;"/>
     </g>
     <g id="text_8">
      <!-- 2 -->
      <g style="fill:#262626;" transform="translate(18.829063 108.133415)scale(0.1 -0.1)">
       <use xlink:href="#ArialMT-50"/>
      </g>
     </g>
    </g>
    <g id="ytick_7">
     <g id="line2d_7">
      <path clip-path="url(#pae73ee2db3)" d="M 31.39 75.124723 
L 1067.04 75.124723 
" style="fill:none;stroke:#ffffff;stroke-linecap:round;"/>
     </g>
     <g id="text_9">
      <!-- 3 -->
      <g style="fill:#262626;" transform="translate(18.829063 78.703629)scale(0.1 -0.1)">
       <use xlink:href="#ArialMT-51"/>
      </g>
     </g>
    </g>
    <g id="ytick_8">
     <g id="line2d_8">
      <path clip-path="url(#pae73ee2db3)" d="M 31.39 45.694936 
L 1067.04 45.694936 
" style="fill:none;stroke:#ffffff;stroke-linecap:round;"/>
     </g>
     <g id="text_10">
      <!-- 4 -->
      <defs>
       <path d="M 32.328125 0 
L 32.328125 17.140625 
L 1.265625 17.140625 
L 1.265625 25.203125 
L 33.9375 71.578125 
L 41.109375 71.578125 
L 41.109375 25.203125 
L 50.78125 25.203125 
L 50.78125 17.140625 
L 41.109375 17.140625 
L 41.109375 0 
z
M 32.328125 25.203125 
L 32.328125 57.46875 
L 9.90625 25.203125 
z
" id="ArialMT-52"/>
      </defs>
      <g style="fill:#262626;" transform="translate(18.829063 49.273842)scale(0.1 -0.1)">
       <use xlink:href="#ArialMT-52"/>
      </g>
     </g>
    </g>
    <g id="ytick_9">
     <g id="line2d_9">
      <path clip-path="url(#pae73ee2db3)" d="M 31.39 16.26515 
L 1067.04 16.26515 
" style="fill:none;stroke:#ffffff;stroke-linecap:round;"/>
     </g>
     <g id="text_11">
      <!-- 5 -->
      <defs>
       <path d="M 4.15625 18.75 
L 13.375 19.53125 
Q 14.40625 12.796875 18.140625 9.390625 
Q 21.875 6 27.15625 6 
Q 33.5 6 37.890625 10.78125 
Q 42.28125 15.578125 42.28125 23.484375 
Q 42.28125 31 38.0625 35.34375 
Q 33.84375 39.703125 27 39.703125 
Q 22.75 39.703125 19.328125 37.765625 
Q 15.921875 35.84375 13.96875 32.765625 
L 5.71875 33.84375 
L 12.640625 70.609375 
L 48.25 70.609375 
L 48.25 62.203125 
L 19.671875 62.203125 
L 15.828125 42.96875 
Q 22.265625 47.46875 29.34375 47.46875 
Q 38.71875 47.46875 45.15625 40.96875 
Q 51.609375 34.46875 51.609375 24.265625 
Q 51.609375 14.546875 45.953125 7.46875 
Q 39.0625 -1.21875 27.15625 -1.21875 
Q 17.390625 -1.21875 11.203125 4.25 
Q 5.03125 9.71875 4.15625 18.75 
z
" id="ArialMT-53"/>
      </defs>
      <g style="fill:#262626;" transform="translate(18.829063 19.844056)scale(0.1 -0.1)">
       <use xlink:href="#ArialMT-53"/>
      </g>
     </g>
    </g>
   </g>
   <g id="PolyCollection_1">
    <defs>
     <path d="M 290.52919 -39.67903 
L 290.07581 -39.67903 
L 289.833818 -41.772757 
L 289.395742 -43.866483 
L 288.659188 -45.96021 
L 287.509853 -48.053936 
L 285.846329 -50.147663 
L 283.61221 -52.24139 
L 280.821431 -54.335116 
L 277.558776 -56.428843 
L 273.945363 -58.522569 
L 270.078553 -60.616296 
L 265.975973 -62.710022 
L 261.557178 -64.803749 
L 256.676134 -66.897475 
L 251.184865 -68.991202 
L 244.988834 -71.084928 
L 238.064583 -73.178655 
L 230.441618 -75.272382 
L 222.175864 -77.366108 
L 213.340999 -79.459835 
L 204.041108 -81.553561 
L 194.426535 -83.647288 
L 184.692217 -85.741014 
L 175.052373 -87.834741 
L 165.702171 -89.928467 
L 156.783114 -92.022194 
L 148.363269 -94.11592 
L 140.434273 -96.209647 
L 132.923526 -98.303374 
L 125.723604 -100.3971 
L 118.742108 -102.490827 
L 111.963047 -104.584553 
L 105.489985 -106.67828 
L 99.535037 -108.772006 
L 94.345756 -110.865733 
L 90.109872 -112.959459 
L 86.901632 -115.053186 
L 84.702717 -117.146912 
L 83.46814 -119.240639 
L 83.1725 -121.334366 
L 83.799901 -123.428092 
L 85.303221 -125.521819 
L 87.591497 -127.615545 
L 90.574584 -129.709272 
L 94.231704 -131.802998 
L 98.636016 -133.896725 
L 103.894712 -135.990451 
L 110.031824 -138.084178 
L 116.894419 -140.177904 
L 124.158947 -142.271631 
L 131.452734 -144.365358 
L 138.527241 -146.459084 
L 145.378787 -148.552811 
L 152.238591 -150.646537 
L 159.431664 -152.740264 
L 167.182903 -154.83399 
L 175.479208 -156.927717 
L 184.061322 -159.021443 
L 192.542619 -161.11517 
L 200.581551 -163.208896 
L 208.011159 -165.302623 
L 214.863882 -167.39635 
L 221.297401 -169.490076 
L 227.481971 -171.583803 
L 233.517961 -173.677529 
L 239.4158 -175.771256 
L 245.122919 -177.864982 
L 250.559643 -179.958709 
L 255.638144 -182.052435 
L 260.265681 -184.146162 
L 264.349036 -186.239888 
L 267.811757 -188.333615 
L 270.620328 -190.427342 
L 272.805557 -192.521068 
L 274.467395 -194.614795 
L 275.759924 -196.708521 
L 276.860957 -198.802248 
L 277.934721 -200.895974 
L 279.097536 -202.989701 
L 280.396157 -205.083427 
L 281.805559 -207.177154 
L 283.246868 -209.27088 
L 284.618567 -211.364607 
L 285.829044 -213.458334 
L 286.818903 -215.55206 
L 287.56753 -217.645787 
L 288.086609 -219.739513 
L 288.408695 -221.83324 
L 288.578393 -223.926966 
L 288.648152 -226.020693 
L 288.675069 -228.114419 
L 288.71394 -230.208146 
L 288.80605 -232.301873 
L 288.968639 -234.395599 
L 289.191701 -236.489326 
L 289.44495 -238.583052 
L 289.691617 -240.676779 
L 289.902077 -242.770505 
L 290.061393 -244.864232 
L 290.169276 -246.957958 
L 290.435724 -246.957958 
L 290.435724 -246.957958 
L 290.543607 -244.864232 
L 290.702923 -242.770505 
L 290.913383 -240.676779 
L 291.16005 -238.583052 
L 291.413299 -236.489326 
L 291.636361 -234.395599 
L 291.79895 -232.301873 
L 291.89106 -230.208146 
L 291.929931 -228.114419 
L 291.956848 -226.020693 
L 292.026607 -223.926966 
L 292.196305 -221.83324 
L 292.518391 -219.739513 
L 293.03747 -217.645787 
L 293.786097 -215.55206 
L 294.775956 -213.458334 
L 295.986433 -211.364607 
L 297.358132 -209.27088 
L 298.799441 -207.177154 
L 300.208843 -205.083427 
L 301.507464 -202.989701 
L 302.670279 -200.895974 
L 303.744043 -198.802248 
L 304.845076 -196.708521 
L 306.137605 -194.614795 
L 307.799443 -192.521068 
L 309.984672 -190.427342 
L 312.793243 -188.333615 
L 316.255964 -186.239888 
L 320.339319 -184.146162 
L 324.966856 -182.052435 
L 330.045357 -179.958709 
L 335.482081 -177.864982 
L 341.1892 -175.771256 
L 347.087039 -173.677529 
L 353.123029 -171.583803 
L 359.307599 -169.490076 
L 365.741118 -167.39635 
L 372.593841 -165.302623 
L 380.023449 -163.208896 
L 388.062381 -161.11517 
L 396.543678 -159.021443 
L 405.125792 -156.927717 
L 413.422097 -154.83399 
L 421.173336 -152.740264 
L 428.366409 -150.646537 
L 435.226213 -148.552811 
L 442.077759 -146.459084 
L 449.152266 -144.365358 
L 456.446053 -142.271631 
L 463.710581 -140.177904 
L 470.573176 -138.084178 
L 476.710288 -135.990451 
L 481.968984 -133.896725 
L 486.373296 -131.802998 
L 490.030416 -129.709272 
L 493.013503 -127.615545 
L 495.301779 -125.521819 
L 496.805099 -123.428092 
L 497.4325 -121.334366 
L 497.13686 -119.240639 
L 495.902283 -117.146912 
L 493.703368 -115.053186 
L 490.495128 -112.959459 
L 486.259244 -110.865733 
L 481.069963 -108.772006 
L 475.115015 -106.67828 
L 468.641953 -104.584553 
L 461.862892 -102.490827 
L 454.881396 -100.3971 
L 447.681474 -98.303374 
L 440.170727 -96.209647 
L 432.241731 -94.11592 
L 423.821886 -92.022194 
L 414.902829 -89.928467 
L 405.552627 -87.834741 
L 395.912783 -85.741014 
L 386.178465 -83.647288 
L 376.563892 -81.553561 
L 367.264001 -79.459835 
L 358.429136 -77.366108 
L 350.163382 -75.272382 
L 342.540417 -73.178655 
L 335.616166 -71.084928 
L 329.420135 -68.991202 
L 323.928866 -66.897475 
L 319.047822 -64.803749 
L 314.629027 -62.710022 
L 310.526447 -60.616296 
L 306.659637 -58.522569 
L 303.046224 -56.428843 
L 299.783569 -54.335116 
L 296.99279 -52.24139 
L 294.758671 -50.147663 
L 293.095147 -48.053936 
L 291.945812 -45.96021 
L 291.209258 -43.866483 
L 290.771182 -41.772757 
L 290.52919 -39.67903 
z
" id="m3e04a540cb" style="stroke:#4c4c4c;stroke-width:3;"/>
    </defs>
    <g clip-path="url(#pae73ee2db3)">
     <use style="fill:#5875a4;stroke:#4c4c4c;stroke-width:3;" x="0" xlink:href="#m3e04a540cb" y="288"/>
    </g>
   </g>
   <g id="PolyCollection_2">
    <defs>
     <path d="M 814.384585 -81.114031 
L 801.870415 -81.114031 
L 796.893682 -82.933683 
L 789.143429 -84.753336 
L 777.89437 -86.572988 
L 762.686624 -88.392641 
L 743.553843 -90.212293 
L 721.181443 -92.031946 
L 696.911563 -93.851599 
L 672.555389 -95.671251 
L 650.04783 -97.490904 
L 631.049144 -99.310556 
L 616.625341 -101.130209 
L 607.107816 -102.949861 
L 602.159428 -104.769514 
L 600.9975 -106.589167 
L 602.679822 -108.408819 
L 606.360404 -110.228472 
L 611.454844 -112.048124 
L 617.696428 -113.867777 
L 625.09473 -115.687429 
L 633.823809 -117.507082 
L 644.073172 -119.326735 
L 655.898265 -121.146387 
L 669.10931 -122.96604 
L 683.232377 -124.785692 
L 697.559753 -126.605345 
L 711.279342 -128.424997 
L 723.644626 -130.24465 
L 734.130733 -132.064303 
L 742.526958 -133.883955 
L 748.940476 -135.703608 
L 753.719007 -137.52326 
L 757.32729 -139.342913 
L 760.222658 -141.162565 
L 762.766698 -142.982218 
L 765.189552 -144.80187 
L 767.601416 -146.621523 
L 770.031379 -148.441176 
L 772.470621 -150.260828 
L 774.903303 -152.080481 
L 777.318728 -153.900133 
L 779.707308 -155.719786 
L 782.047557 -157.539438 
L 784.292156 -159.359091 
L 786.359757 -161.178744 
L 788.137251 -162.998396 
L 789.494659 -164.818049 
L 790.31126 -166.637701 
L 790.507032 -168.457354 
L 790.069825 -170.277006 
L 789.068339 -172.096659 
L 787.645107 -173.916312 
L 785.990989 -175.735964 
L 784.309665 -177.555617 
L 782.783648 -179.375269 
L 781.551079 -181.194922 
L 780.696712 -183.014574 
L 780.254505 -184.834227 
L 780.216235 -186.653879 
L 780.541255 -188.473532 
L 781.165492 -190.293185 
L 782.010516 -192.112837 
L 782.99438 -193.93249 
L 784.044691 -195.752142 
L 785.11226 -197.571795 
L 786.181752 -199.391447 
L 787.275204 -201.2111 
L 788.445279 -203.030753 
L 789.757941 -204.850405 
L 791.268165 -206.670058 
L 792.995979 -208.48971 
L 794.911451 -210.309363 
L 796.934914 -212.129015 
L 798.953085 -213.948668 
L 800.845427 -215.768321 
L 802.511147 -217.587973 
L 803.887807 -219.407626 
L 804.956834 -221.227278 
L 805.73692 -223.046931 
L 806.270444 -224.866583 
L 806.609089 -226.686236 
L 806.803112 -228.505889 
L 806.895787 -230.325541 
L 806.922113 -232.145194 
L 806.909794 -233.964846 
L 806.88077 -235.784499 
L 806.852449 -237.604151 
L 806.8385 -239.423804 
L 806.849274 -241.243456 
L 806.89181 -243.063109 
L 806.969376 -244.882762 
L 807.080716 -246.702414 
L 807.219615 -248.522067 
L 807.375434 -250.341719 
L 807.534929 -252.161372 
L 807.68495 -253.981024 
L 807.815129 -255.800677 
L 807.919595 -257.62033 
L 807.997255 -259.439982 
L 808.050808 -261.259635 
L 808.204192 -261.259635 
L 808.204192 -261.259635 
L 808.257745 -259.439982 
L 808.335405 -257.62033 
L 808.439871 -255.800677 
L 808.57005 -253.981024 
L 808.720071 -252.161372 
L 808.879566 -250.341719 
L 809.035385 -248.522067 
L 809.174284 -246.702414 
L 809.285624 -244.882762 
L 809.36319 -243.063109 
L 809.405726 -241.243456 
L 809.4165 -239.423804 
L 809.402551 -237.604151 
L 809.37423 -235.784499 
L 809.345206 -233.964846 
L 809.332887 -232.145194 
L 809.359213 -230.325541 
L 809.451888 -228.505889 
L 809.645911 -226.686236 
L 809.984556 -224.866583 
L 810.51808 -223.046931 
L 811.298166 -221.227278 
L 812.367193 -219.407626 
L 813.743853 -217.587973 
L 815.409573 -215.768321 
L 817.301915 -213.948668 
L 819.320086 -212.129015 
L 821.343549 -210.309363 
L 823.259021 -208.48971 
L 824.986835 -206.670058 
L 826.497059 -204.850405 
L 827.809721 -203.030753 
L 828.979796 -201.2111 
L 830.073248 -199.391447 
L 831.14274 -197.571795 
L 832.210309 -195.752142 
L 833.26062 -193.93249 
L 834.244484 -192.112837 
L 835.089508 -190.293185 
L 835.713745 -188.473532 
L 836.038765 -186.653879 
L 836.000495 -184.834227 
L 835.558288 -183.014574 
L 834.703921 -181.194922 
L 833.471352 -179.375269 
L 831.945335 -177.555617 
L 830.264011 -175.735964 
L 828.609893 -173.916312 
L 827.186661 -172.096659 
L 826.185175 -170.277006 
L 825.747968 -168.457354 
L 825.94374 -166.637701 
L 826.760341 -164.818049 
L 828.117749 -162.998396 
L 829.895243 -161.178744 
L 831.962844 -159.359091 
L 834.207443 -157.539438 
L 836.547692 -155.719786 
L 838.936272 -153.900133 
L 841.351697 -152.080481 
L 843.784379 -150.260828 
L 846.223621 -148.441176 
L 848.653584 -146.621523 
L 851.065448 -144.80187 
L 853.488302 -142.982218 
L 856.032342 -141.162565 
L 858.92771 -139.342913 
L 862.535993 -137.52326 
L 867.314524 -135.703608 
L 873.728042 -133.883955 
L 882.124267 -132.064303 
L 892.610374 -130.24465 
L 904.975658 -128.424997 
L 918.695247 -126.605345 
L 933.022623 -124.785692 
L 947.14569 -122.96604 
L 960.356735 -121.146387 
L 972.181828 -119.326735 
L 982.431191 -117.507082 
L 991.16027 -115.687429 
L 998.558572 -113.867777 
L 1004.800156 -112.048124 
L 1009.894596 -110.228472 
L 1013.575178 -108.408819 
L 1015.2575 -106.589167 
L 1014.095572 -104.769514 
L 1009.147184 -102.949861 
L 999.629659 -101.130209 
L 985.205856 -99.310556 
L 966.20717 -97.490904 
L 943.699611 -95.671251 
L 919.343437 -93.851599 
L 895.073557 -92.031946 
L 872.701157 -90.212293 
L 853.568376 -88.392641 
L 838.36063 -86.572988 
L 827.111571 -84.753336 
L 819.361318 -82.933683 
L 814.384585 -81.114031 
z
" id="mf19deb11a5" style="stroke:#4c4c4c;stroke-width:3;"/>
    </defs>
    <g clip-path="url(#pae73ee2db3)">
     <use style="fill:#5f9e6e;stroke:#4c4c4c;stroke-width:3;" x="0" xlink:href="#mf19deb11a5" y="288"/>
    </g>
   </g>
   <g id="line2d_10">
    <path clip-path="url(#pae73ee2db3)" d="M 290.3025 234.372522 
L 290.3025 85.780303 
" style="fill:none;stroke:#4c4c4c;stroke-linecap:round;stroke-width:3;"/>
   </g>
   <g id="line2d_11">
    <path clip-path="url(#pae73ee2db3)" d="M 290.3025 184.489887 
L 290.3025 143.96364 
" style="fill:none;stroke:#4c4c4c;stroke-linecap:round;stroke-width:9;"/>
   </g>
   <g id="line2d_12">
    <path clip-path="url(#pae73ee2db3)" d="M 808.1275 192.937521 
L 808.1275 111.887899 
" style="fill:none;stroke:#4c4c4c;stroke-linecap:round;stroke-width:3;"/>
   </g>
   <g id="line2d_13">
    <path clip-path="url(#pae73ee2db3)" d="M 808.1275 184.144043 
L 808.1275 155.225536 
" style="fill:none;stroke:#4c4c4c;stroke-linecap:round;stroke-width:9;"/>
   </g>
   <g id="patch_3">
    <path d="M 31.39 259.4 
L 31.39 15.661335 
" style="fill:none;"/>
   </g>
   <g id="patch_4">
    <path d="M 1067.04 259.4 
L 1067.04 15.661335 
" style="fill:none;"/>
   </g>
   <g id="patch_5">
    <path d="M 31.39 259.4 
L 1067.04 259.4 
" style="fill:none;"/>
   </g>
   <g id="patch_6">
    <path d="M 31.39 15.661335 
L 1067.04 15.661335 
" style="fill:none;"/>
   </g>
   <g id="PathCollection_1">
    <defs>
     <path d="M 0 3 
C 0.795609 3 1.55874 2.683901 2.12132 2.12132 
C 2.683901 1.55874 3 0.795609 3 0 
C 3 -0.795609 2.683901 -1.55874 2.12132 -2.12132 
C 1.55874 -2.683901 0.795609 -3 0 -3 
C -0.795609 -3 -1.55874 -2.683901 -2.12132 -2.12132 
C -2.683901 -1.55874 -3 -0.795609 -3 0 
C -3 0.795609 -2.683901 1.55874 -2.12132 2.12132 
C -1.55874 2.683901 -0.795609 3 0 3 
z
" id="mbc56827762" style="stroke:#4c4c4c;stroke-width:0.3;"/>
    </defs>
    <g clip-path="url(#pae73ee2db3)">
     <use style="fill:#ffffff;stroke:#4c4c4c;stroke-width:0.3;" x="290.3025" xlink:href="#mbc56827762" y="164.685232"/>
    </g>
   </g>
   <g id="PathCollection_2">
    <g clip-path="url(#pae73ee2db3)">
     <use style="fill:#ffffff;stroke:#4c4c4c;stroke-width:0.3;" x="808.1275" xlink:href="#mbc56827762" y="172.863658"/>
    </g>
   </g>
  </g>
  <g id="text_12">
   <!-- Violin Plot of all Continuous Variables -->
   <defs>
    <path d="M 28.171875 0 
L 0.4375 71.578125 
L 10.6875 71.578125 
L 29.296875 19.578125 
Q 31.546875 13.328125 33.0625 7.859375 
Q 34.71875 13.71875 36.921875 19.578125 
L 56.25 71.578125 
L 65.921875 71.578125 
L 37.890625 0 
z
" id="ArialMT-86"/>
    <path d="M 3.328125 25.921875 
Q 3.328125 40.328125 11.328125 47.265625 
Q 18.015625 53.03125 27.640625 53.03125 
Q 38.328125 53.03125 45.109375 46.015625 
Q 51.90625 39.015625 51.90625 26.65625 
Q 51.90625 16.65625 48.90625 10.90625 
Q 45.90625 5.171875 40.15625 2 
Q 34.421875 -1.171875 27.640625 -1.171875 
Q 16.75 -1.171875 10.03125 5.8125 
Q 3.328125 12.796875 3.328125 25.921875 
z
M 12.359375 25.921875 
Q 12.359375 15.96875 16.703125 11.015625 
Q 21.046875 6.0625 27.640625 6.0625 
Q 34.1875 6.0625 38.53125 11.03125 
Q 42.875 16.015625 42.875 26.21875 
Q 42.875 35.84375 38.5 40.796875 
Q 34.125 45.75 27.640625 45.75 
Q 21.046875 45.75 16.703125 40.8125 
Q 12.359375 35.890625 12.359375 25.921875 
z
" id="ArialMT-111"/>
    <path d="M 6.390625 0 
L 6.390625 71.578125 
L 15.1875 71.578125 
L 15.1875 0 
z
" id="ArialMT-108"/>
    <path d="M 6.59375 0 
L 6.59375 51.859375 
L 14.5 51.859375 
L 14.5 44.484375 
Q 20.21875 53.03125 31 53.03125 
Q 35.6875 53.03125 39.625 51.34375 
Q 43.5625 49.65625 45.515625 46.921875 
Q 47.46875 44.1875 48.25 40.4375 
Q 48.734375 37.984375 48.734375 31.890625 
L 48.734375 0 
L 39.9375 0 
L 39.9375 31.546875 
Q 39.9375 36.921875 38.90625 39.578125 
Q 37.890625 42.234375 35.28125 43.8125 
Q 32.671875 45.40625 29.15625 45.40625 
Q 23.53125 45.40625 19.453125 41.84375 
Q 15.375 38.28125 15.375 28.328125 
L 15.375 0 
z
" id="ArialMT-110"/>
    <path id="ArialMT-32"/>
    <path d="M 7.71875 0 
L 7.71875 71.578125 
L 34.71875 71.578125 
Q 41.84375 71.578125 45.609375 70.90625 
Q 50.875 70.015625 54.4375 67.546875 
Q 58.015625 65.09375 60.1875 60.640625 
Q 62.359375 56.203125 62.359375 50.875 
Q 62.359375 41.75 56.546875 35.421875 
Q 50.734375 29.109375 35.546875 29.109375 
L 17.1875 29.109375 
L 17.1875 0 
z
M 17.1875 37.546875 
L 35.6875 37.546875 
Q 44.875 37.546875 48.734375 40.96875 
Q 52.59375 44.390625 52.59375 50.59375 
Q 52.59375 55.078125 50.3125 58.265625 
Q 48.046875 61.46875 44.34375 62.5 
Q 41.9375 63.140625 35.5 63.140625 
L 17.1875 63.140625 
z
" id="ArialMT-80"/>
    <path d="M 25.78125 7.859375 
L 27.046875 0.09375 
Q 23.34375 -0.6875 20.40625 -0.6875 
Q 15.625 -0.6875 12.984375 0.828125 
Q 10.359375 2.34375 9.28125 4.8125 
Q 8.203125 7.28125 8.203125 15.1875 
L 8.203125 45.015625 
L 1.765625 45.015625 
L 1.765625 51.859375 
L 8.203125 51.859375 
L 8.203125 64.703125 
L 16.9375 69.96875 
L 16.9375 51.859375 
L 25.78125 51.859375 
L 25.78125 45.015625 
L 16.9375 45.015625 
L 16.9375 14.703125 
Q 16.9375 10.9375 17.40625 9.859375 
Q 17.875 8.796875 18.921875 8.15625 
Q 19.96875 7.515625 21.921875 7.515625 
Q 23.390625 7.515625 25.78125 7.859375 
z
" id="ArialMT-116"/>
    <path d="M 8.6875 0 
L 8.6875 45.015625 
L 0.921875 45.015625 
L 0.921875 51.859375 
L 8.6875 51.859375 
L 8.6875 57.375 
Q 8.6875 62.59375 9.625 65.140625 
Q 10.890625 68.5625 14.078125 70.671875 
Q 17.28125 72.796875 23.046875 72.796875 
Q 26.765625 72.796875 31.25 71.921875 
L 29.9375 64.265625 
Q 27.203125 64.75 24.75 64.75 
Q 20.75 64.75 19.09375 63.03125 
Q 17.4375 61.328125 17.4375 56.640625 
L 17.4375 51.859375 
L 27.546875 51.859375 
L 27.546875 45.015625 
L 17.4375 45.015625 
L 17.4375 0 
z
" id="ArialMT-102"/>
    <path d="M 58.796875 25.09375 
L 68.265625 22.703125 
Q 65.28125 11.03125 57.546875 4.90625 
Q 49.8125 -1.21875 38.625 -1.21875 
Q 27.046875 -1.21875 19.796875 3.484375 
Q 12.546875 8.203125 8.765625 17.140625 
Q 4.984375 26.078125 4.984375 36.328125 
Q 4.984375 47.515625 9.25 55.828125 
Q 13.53125 64.15625 21.40625 68.46875 
Q 29.296875 72.796875 38.765625 72.796875 
Q 49.515625 72.796875 56.828125 67.328125 
Q 64.15625 61.859375 67.046875 51.953125 
L 57.71875 49.75 
Q 55.21875 57.5625 50.484375 61.125 
Q 45.75 64.703125 38.578125 64.703125 
Q 30.328125 64.703125 24.78125 60.734375 
Q 19.234375 56.78125 16.984375 50.109375 
Q 14.75 43.453125 14.75 36.375 
Q 14.75 27.25 17.40625 20.4375 
Q 20.0625 13.625 25.671875 10.25 
Q 31.296875 6.890625 37.84375 6.890625 
Q 45.796875 6.890625 51.3125 11.46875 
Q 56.84375 16.0625 58.796875 25.09375 
z
" id="ArialMT-67"/>
    <path d="M 40.578125 0 
L 40.578125 7.625 
Q 34.515625 -1.171875 24.125 -1.171875 
Q 19.53125 -1.171875 15.546875 0.578125 
Q 11.578125 2.34375 9.640625 5 
Q 7.71875 7.671875 6.9375 11.53125 
Q 6.390625 14.109375 6.390625 19.734375 
L 6.390625 51.859375 
L 15.1875 51.859375 
L 15.1875 23.09375 
Q 15.1875 16.21875 15.71875 13.8125 
Q 16.546875 10.359375 19.234375 8.375 
Q 21.921875 6.390625 25.875 6.390625 
Q 29.828125 6.390625 33.296875 8.421875 
Q 36.765625 10.453125 38.203125 13.9375 
Q 39.65625 17.4375 39.65625 24.078125 
L 39.65625 51.859375 
L 48.4375 51.859375 
L 48.4375 0 
z
" id="ArialMT-117"/>
   </defs>
   <g style="fill:#262626;" transform="translate(416.035547 16.496719)scale(0.15 -0.15)">
    <use xlink:href="#ArialMT-86"/>
    <use x="64.949219" xlink:href="#ArialMT-105"/>
    <use x="87.166016" xlink:href="#ArialMT-111"/>
    <use x="142.78125" xlink:href="#ArialMT-108"/>
    <use x="164.998047" xlink:href="#ArialMT-105"/>
    <use x="187.214844" xlink:href="#ArialMT-110"/>
    <use x="242.830078" xlink:href="#ArialMT-32"/>
    <use x="270.613281" xlink:href="#ArialMT-80"/>
    <use x="337.3125" xlink:href="#ArialMT-108"/>
    <use x="359.529297" xlink:href="#ArialMT-111"/>
    <use x="415.144531" xlink:href="#ArialMT-116"/>
    <use x="442.927734" xlink:href="#ArialMT-32"/>
    <use x="470.710938" xlink:href="#ArialMT-111"/>
    <use x="526.326172" xlink:href="#ArialMT-102"/>
    <use x="554.109375" xlink:href="#ArialMT-32"/>
    <use x="581.892578" xlink:href="#ArialMT-97"/>
    <use x="637.507812" xlink:href="#ArialMT-108"/>
    <use x="659.724609" xlink:href="#ArialMT-108"/>
    <use x="681.941406" xlink:href="#ArialMT-32"/>
    <use x="709.724609" xlink:href="#ArialMT-67"/>
    <use x="781.941406" xlink:href="#ArialMT-111"/>
    <use x="837.556641" xlink:href="#ArialMT-110"/>
    <use x="893.171875" xlink:href="#ArialMT-116"/>
    <use x="920.955078" xlink:href="#ArialMT-105"/>
    <use x="943.171875" xlink:href="#ArialMT-110"/>
    <use x="998.787109" xlink:href="#ArialMT-117"/>
    <use x="1054.402344" xlink:href="#ArialMT-111"/>
    <use x="1110.017578" xlink:href="#ArialMT-117"/>
    <use x="1165.632812" xlink:href="#ArialMT-115"/>
    <use x="1215.632812" xlink:href="#ArialMT-32"/>
    <use x="1243.416016" xlink:href="#ArialMT-86"/>
    <use x="1302.740234" xlink:href="#ArialMT-97"/>
    <use x="1358.355469" xlink:href="#ArialMT-114"/>
    <use x="1391.65625" xlink:href="#ArialMT-105"/>
    <use x="1413.873047" xlink:href="#ArialMT-97"/>
    <use x="1469.488281" xlink:href="#ArialMT-98"/>
    <use x="1525.103516" xlink:href="#ArialMT-108"/>
    <use x="1547.320312" xlink:href="#ArialMT-101"/>
    <use x="1602.935547" xlink:href="#ArialMT-115"/>
   </g>
  </g>
 </g>
 <defs>
  <clipPath id="pae73ee2db3">
   <rect height="243.738665" width="1035.65" x="31.39" y="15.661335"/>
  </clipPath>
 </defs>
</svg>
